<svg xmlns="http://www.w3.org/2000/svg" viewBox="0 0 652.07 575.03"><defs><style>.cls-1{fill:#f05a28;stroke:#f7931e;stroke-miterlimit:10;stroke-width:14px;}.cls-2{fill:#f7931e;}</style></defs><title>Recurso 1</title><g id="Capa_2" data-name="Capa 2"><g id="Capa_8" data-name="Capa 8"><path class="cls-1" d="M337,377s104,17,105-110-105-99-105-99V409s-1,60-11,84c-31.25,75-133,75-133,75H7V434H112s40,3,40-39V8S289.81,5.71,335.66,8C369.4,9.75,442,18.84,469,30c29,12,172,52,176,258S481,568,337,568H193"/><path class="cls-2" d="M337,377a91.22,91.22,0,0,0,10.85-.25q5.38-.42,10.67-1.34a100,100,0,0,0,20.37-5.72c12.95-5.2,24.37-13.35,32.5-24a83.3,83.3,0,0,0,10.23-17.14c.71-1.51,1.25-3.12,1.88-4.66l.92-2.33c.3-.78.51-1.6.77-2.4l1.48-4.82c.44-1.62.78-3.29,1.17-4.93a145.19,145.19,0,0,0,3.07-20.14l.13-1.27.06-1.29.11-2.58.22-5.14c.06-.85.05-1.72,0-2.58l0-2.59,0-5.18c0-1.72-.12-3.44-.21-5.16l-.29-5.15c-.06-.85-.08-1.72-.16-2.57l-.3-2.53-.58-5.06c-.11-.84-.16-1.7-.32-2.52l-.45-2.48-.85-4.94a19,19,0,0,0-.52-2.43l-.58-2.41c-.41-1.59-.74-3.21-1.2-4.77l-1.49-4.62c-.26-.76-.48-1.55-.76-2.3l-.91-2.19c-.62-1.46-1.17-2.95-1.83-4.37l-2.13-4.14a64,64,0,0,0-10.56-14.43c-8.27-8.2-19-13.35-30.94-15.56a88.68,88.68,0,0,0-18.52-1.24,93.13,93.13,0,0,0-9.43.76c-1.55.19-3.11.43-4.62.71-.77.13-1.49.29-2.23.44l-1.05.23-.47.12-.29.07L351.61,168c.46,40.63.41,81.26.21,121.89l-.32,30.47-.16,15.24-.26,15.23-.54,30.47-.36,15.23-.19,7.62L349.9,408l-.06,2.08-.09,2c-.27,5.22-.63,10.38-1.09,15.54s-1,10.34-1.53,15.5a313.19,313.19,0,0,1-4.94,31.15l-.86,3.93c-.32,1.32-.68,2.65-1,4-.63,2.62-1.52,5.34-2.38,8-.37,1.32-1,2.75-1.56,4.11a37.71,37.71,0,0,1-1.76,4L332.72,502c-.63,1.24-1.24,2.48-2,3.66a111.53,111.53,0,0,1-9.34,13.75l-2.63,3.2c-.85,1.09-1.86,2-2.79,3l-2.83,3-3,2.81A119.2,119.2,0,0,1,283.66,550a154.69,154.69,0,0,1-29.41,11.56,189.29,189.29,0,0,1-30.53,5.81A171.55,171.55,0,0,1,193,568c5.06-.57,10.07-1.43,15-2.41s9.88-2.15,14.74-3.42a206.18,206.18,0,0,0,28.31-9.7,156.76,156.76,0,0,0,25.8-14c2-1.33,3.92-2.81,5.87-4.2s3.76-3,5.54-4.56l2.66-2.38c.44-.4.89-.78,1.32-1.19l1.25-1.26,2.49-2.51c.84-.82,1.57-1.75,2.36-2.62a96.86,96.86,0,0,0,15.22-23.17A31.71,31.71,0,0,0,315,493.5l1.29-3.2a23.91,23.91,0,0,0,1-3.09l.46-1.5c.08-.26.16-.5.23-.76l.2-.83c.51-2.2,1.07-4.36,1.45-6.72.2-1.16.43-2.3.62-3.47l.51-3.56c2.53-19.11,3.27-39.26,3.37-59V409.5l0-1.73L324,404l-.19-7.62-.36-15.22-.54-30.45-.26-15.22-.16-15.22-.32-30.44c-.2-40.59-.25-81.18.21-121.77l.13-11.57,10.75-2.55,1-.25.86-.19,1.61-.33c1-.18,2.09-.39,3.11-.54,2.06-.33,4.09-.6,6.13-.82a122.19,122.19,0,0,1,12.25-.72,112.19,112.19,0,0,1,24.7,2.49,90.56,90.56,0,0,1,24,8.87,78.93,78.93,0,0,1,20.45,16.06,90,90,0,0,1,14.07,21.2l2.49,5.7c.76,1.91,1.36,3.86,2,5.78l1,2.9c.3,1,.52,1.94.78,2.92l1.49,5.83c3.46,15.6,3.91,31.1,3.2,46.24l-.4,5.68-.2,2.84c-.06.95-.14,1.89-.29,2.84l-.74,5.69-.37,2.83-.19,1.42-.27,1.42a149.11,149.11,0,0,1-5.52,22.42c-.63,1.83-1.21,3.68-1.9,5.49l-2.27,5.39c-.39.89-.73,1.79-1.16,2.67l-1.34,2.61L436.47,333c-.46.86-.85,1.75-1.39,2.57l-3.11,5a26.05,26.05,0,0,1-1.67,2.42l-1.75,2.37-1.76,2.35-1.94,2.22c-1.32,1.45-2.51,3-4,4.32a78.71,78.71,0,0,1-18.56,14.05A87.54,87.54,0,0,1,381,376.51a98,98,0,0,1-22.18,2.72c-1.85.06-3.7,0-5.53-.06s-3.68-.21-5.51-.4A78.42,78.42,0,0,1,337,377Z"/></g></g></svg>